<svg width="25" height="21" viewBox="0 0 25 21" fill="none" xmlns="http://www.w3.org/2000/svg">
<path d="M13.5994 8.28562C13.7441 8.37247 13.9178 8.43025 14.0915 8.43025C14.3809 8.43025 14.6413 8.28562 14.815 8.05393L16.6384 5.36212H21.9638L20.3719 6.95406C20.0247 7.30129 20.0247 7.85133 20.3719 8.16967C20.5456 8.34338 20.7771 8.43024 20.9797 8.43024C21.1823 8.43024 21.4138 8.34338 21.5875 8.16967L24.6845 5.07265C25.0318 4.72542 25.0318 4.17538 24.6845 3.85704L21.5875 0.760425C21.2403 0.413192 20.6902 0.413192 20.3719 0.760425C20.0247 1.10766 20.0247 1.6577 20.3719 1.97604L21.9638 3.56798H16.175C15.8855 3.56798 15.6252 3.71261 15.4515 3.94429L13.3674 7.06998C13.1069 7.47519 13.1937 7.99613 13.5989 8.28559L13.5994 8.28562Z" fill="white"/>
<path d="M10.7631 12.4825C10.3578 12.222 9.83691 12.3088 9.54744 12.714L7.57922 15.6664H0.922234C0.430176 15.6664 0.053833 16.0427 0.053833 16.5348C0.053833 17.0269 0.43015 17.4032 0.922234 17.4032H8.01329C8.30275 17.4032 8.5631 17.2585 8.73683 17.0269L10.9943 13.6695C11.2838 13.2641 11.168 12.7432 10.7628 12.4826L10.7631 12.4825Z" fill="white"/>
<path d="M21.5881 12.8589C21.2408 12.5116 20.6908 12.5116 20.3725 12.8589C20.0252 13.2061 20.0252 13.7561 20.3725 14.0745L21.9644 15.6664H16.639L8.73757 4.00212C8.56385 3.77063 8.30348 3.6258 8.01402 3.6258H0.922967C0.430908 3.6258 0.0545654 4.00212 0.0545654 4.4942C0.0545654 4.98626 0.430883 5.3626 0.922967 5.3626L7.57995 5.36241L15.4814 17.0556C15.6551 17.287 15.9155 17.4319 16.205 17.4319H21.9938L20.4018 19.0238C20.0546 19.3711 20.0546 19.9211 20.4018 20.2394C20.5756 20.4131 20.8071 20.5 21.0097 20.5C21.2123 20.5 21.4437 20.4131 21.6175 20.2394L24.6856 17.1715C24.8593 16.9978 24.9461 16.7952 24.9461 16.5637C24.9461 16.3322 24.8593 16.1006 24.6856 15.9559L21.5881 12.8589Z" fill="white"/>
</svg>
